<?xml version="1.0" encoding="utf-8"?>
<!-- Generator: Adobe Illustrator 25.3.1, SVG Export Plug-In . SVG Version: 6.00 Build 0)  -->
<svg version="1.1" id="Layer_1" xmlns="http://www.w3.org/2000/svg" xmlns:xlink="http://www.w3.org/1999/xlink" x="0px" y="0px"
	 viewBox="0 0 90.5 209.2" style="enable-background:new 0 0 90.5 209.2;" xml:space="preserve">
<style type="text/css">
	.st0{fill-rule:evenodd;clip-rule:evenodd;}
	.st1{fill-rule:evenodd;clip-rule:evenodd;fill:#6F57A5;}
</style>
<polygon class="st0" points="0.1,89.1 16.9,99.2 16.9,177.3 0,167.5 0.1,89.1 "/>
<polygon class="st0" points="0.1,0 16.9,9.7 16.9,66.6 0.1,76.6 0.1,0 "/>
<polygon class="st0" points="0.1,83.2 72.1,124.7 72.1,105.8 36.1,82.8 72.1,61.9 72.1,41.6 0.1,83.2 "/>
<polygon class="st0" points="36.1,146.8 36.1,188.4 67.1,206.3 67.1,186.8 52.9,177.8 52.8,156.5 36.1,146.8 "/>
<polygon class="st0" points="72.1,209.2 90.3,197.8 90.3,114.3 72.1,124.7 72.1,209.2 "/>
<polygon class="st1" points="72.1,105.8 90.5,93.8 90.5,72.6 72.1,83.2 72.1,105.8 "/>
</svg>
